<?xml version="1.0" encoding="utf-8"?>
<!-- Generator: Adobe Illustrator 18.0.0, SVG Export Plug-In . SVG Version: 6.00 Build 0)  -->
<!DOCTYPE svg PUBLIC "-//W3C//DTD SVG 1.1//EN" "http://www.w3.org/Graphics/SVG/1.1/DTD/svg11.dtd">
<svg version="1.1" id="Layer_1" xmlns="http://www.w3.org/2000/svg" xmlns:xlink="http://www.w3.org/1999/xlink" x="0px" y="0px"
	 viewBox="0 0 311.5 96" enable-background="new 0 0 311.5 96" xml:space="preserve">
<g>
	<path fill="#421102" d="M70.4,45.2c0,1-0.8,1.7-1.7,1.7c-1,0-1.7-0.8-1.7-1.7c0-1,0.8-1.7,1.7-1.7C69.7,43.4,70.4,44.2,70.4,45.2z"
		/>
	<path fill="#D85525" d="M84,57.8c-2.1-3.5-4.3-8.2-6.5-12.7c-3.5-7.4-6.8-14.4-10.3-17.9c-1.3-1.3-3.1-2.4-5.3-3.1
		c1.2-5.3,0.2-13.8-2.7-16.7c-0.5-0.5-1.1,2.5-2.7,3.7c-2.1,1.7-7.1,5.6-6,12.3c-4.9,0.9-9.5,3.3-13,6.7c-5.2,5.2-22.2,24-22.4,48.2
		c0,0.4,0.2,0.8,0.4,1.1c0.3,0.3,0.7,0.4,1.1,0.4h27.3c0.4,0,0.8-0.2,1.1-0.5c0.7-0.7,1.7-1.8,2.9-3.1c3.2-3.4,9-9.8,10.6-10.8
		c0.3-0.2,0.7-0.3,1-0.3c1.5,0,3.4,2.2,5.4,4.6c1,1.2,2,2.4,3.2,3.6c1.3,1.3,5.1,5.2,9.7,5.2c2.1,0,4.1-0.8,5.8-2.5
		C88.6,71.7,88.7,65.5,84,57.8L84,57.8z M69.1,40.7c2.5,0,3.5,2,3.5,4.5c0,2.5-1,4.5-3.5,4.5c-2.5,0-4.5-2-4.5-4.5
		C64.6,42.7,66.6,40.7,69.1,40.7z M45.8,74.3c-0.1,0.2-0.3,0.3-0.4,0.4c-1.9-1.5-6.5-2.3-13.7-2.3c-1.8,0-3.3-1.3-4.9-2.6
		c-1.9-1.6-4-3.4-7-3.4c0.2-1,0.5-2,0.8-3c3.6,0.3,6.2,2.4,8.1,4.1c1.1,0.9,2.3,1.9,3,1.9c5.2,0,12.4,0.4,15.7,3.1
		C46.9,73.1,46.4,73.7,45.8,74.3z M51.4,68.3c-2.8-8.1-14-10.9-16.6-10.9c-2.1,0-3.9-1.8-5.6-3.4c-1.1-1.1-2.6-2.6-3.5-2.6
		c0,0,0,0,0,0c0.5-0.9,1-1.8,1.5-2.7c1.5,0.6,2.8,1.9,4.1,3.2c1.1,1.1,2.6,2.6,3.5,2.6c3.2,0,14.9,2.8,18.9,11.6
		C53,66.6,52.2,67.4,51.4,68.3z M60.4,62.3c-0.2,0-0.5-0.1-0.7-0.1c-0.7,0-1.3,0.2-2,0.5c-0.1-0.1-0.1-0.2-0.2-0.3
		c-0.1-0.2-0.1-0.4-0.1-0.6c0-5.3-5.7-10.9-11.2-13.7c-4.3-2.1-5.9-5.6-7.2-8.5c-0.7-1.6-1.3-2.9-2.3-3.9c0,0-0.1-0.1-0.1-0.2
		c0.7-0.8,1.4-1.5,2-2.2c0.1,0.1,0.2,0.1,0.3,0.2c1.3,1.3,2.1,3,2.9,4.7c1.2,2.6,2.5,5.4,5.8,7c4.7,2.3,9.6,6.6,11.8,11.4
		c0.7-3.2,1.1-8.4,1.1-16.1c0-1.8,0.8-4.1,1.6-6.5c0.7-2.1,1.4-4.3,1.4-5.6c0-0.2,0-0.4,0.1-0.5c0.6,0.4,1.2,0.8,1.6,1.2
		c0.3,0.3,0.7,0.8,1.1,1.2c-0.3,1.4-0.8,3-1.4,4.6c-0.7,2.1-1.4,4.3-1.4,5.5C63.4,52.4,62.4,59.6,60.4,62.3L60.4,62.3z M65.8,66.1
		c-0.7-0.8-1.4-1.5-2.1-2.1c0.2-0.3,0.4-0.5,0.7-0.6c4.4-1.4,5.5-4.5,6.6-7.7c1-2.7,2-5.4,4.8-7c0.4,0.9,0.9,1.8,1.3,2.8
		c-1.8,1.1-2.5,3.1-3.3,5.3C72.7,60.1,71.2,64.2,65.8,66.1z M79.8,68.7c-1.5,2.3-3.1,4.6-4.7,6.2c-0.9-0.4-1.8-1-2.5-1.6
		c0.1-0.2,0.2-0.4,0.3-0.5c1.4-1.4,2.9-3.6,4.3-5.8c1.5-2.3,3.1-4.6,4.7-6.3c0.1-0.1,0.1-0.1,0.2-0.1c0.6,1,1,2,1.3,2.9
		C82.3,65,81,66.9,79.8,68.7z"/>
	<path fill="#FFFFFF" d="M68.7,44.6c0,0.2-0.2,0.4-0.4,0.4c-0.2,0-0.4-0.2-0.4-0.4c0-0.2,0.2-0.4,0.4-0.4
		C68.5,44.3,68.7,44.4,68.7,44.6z"/>
</g>
<g>
	<path fill="#4E5C73" d="M104.8,62.6c2.1,1.8,4.3,3.1,7.9,3.1c3.9,0,5.9-2.3,5.9-4.9c0-3.1-3.2-4.4-6-5.5c-3.8-1.3-7.9-2.8-7.9-7.1
		c0-3.6,2.8-6.6,8-6.6c2.6,0,5.3,1.1,7.1,2.6l-1.2,1.6c-1.6-1.2-3.4-2.2-5.9-2.2c-3.8,0-5.6,2.2-5.6,4.5c0,2.8,2.9,3.9,5.8,5
		c3.9,1.4,8.1,2.7,8.1,7.6c0,3.7-3,7-8.4,7c-3.7,0-6.9-1.5-9.1-3.4L104.8,62.6z"/>
	<path fill="#4E5C73" d="M136.4,41.7c6,0,11.1,4.7,11.1,13c0,8.2-5.2,12.9-11.1,12.9c-5.9,0-11.1-4.7-11.1-12.9
		C125.3,46.5,130.5,41.7,136.4,41.7z M136.4,65.7c5,0,8.8-4.4,8.8-10.9c0-6.5-3.8-11-8.8-11c-5,0-8.7,4.5-8.7,11
		C127.7,61.2,131.4,65.7,136.4,65.7z"/>
	<path fill="#4E5C73" d="M164.2,41.7c3.4,0,5.6,1.5,7.3,3l-1.3,1.6c-1.6-1.5-3.5-2.6-5.9-2.6c-5.1,0-9,4.5-9,11
		c0,6.5,3.6,10.9,9,10.9c2.6,0,4.9-1.3,6.6-2.8l1.2,1.5c-2.1,1.9-4.7,3.3-7.9,3.3c-6.4,0-11.2-4.7-11.2-12.9
		C152.9,46.5,158.2,41.7,164.2,41.7z"/>
	<path fill="#4E5C73" d="M177.2,34.3c0-1.3,0.9-2.1,2.1-2.1c1.1,0,2.1,0.8,2.1,2.1c0,1.2-0.9,2-2.1,2
		C178.2,36.3,177.2,35.5,177.2,34.3z M178.1,42.3h2.3v24.7h-2.3V42.3z"/>
	<path fill="#4E5C73" d="M204.5,51.6c0.1-3.8-1-7.8-5.8-7.8c-3.4,0-6.2,1.6-7.9,2.9l-1-1.7c1.8-1.2,5.2-3.2,9.2-3.2
		c5.9,0,7.8,4.2,7.8,9.5v15.8h-1.9l-0.3-3.2h-0.1c-2.5,2-5.5,3.8-8.8,3.8c-3.9,0-7.2-2.1-7.2-6.8C188.5,55.4,193.5,52.8,204.5,51.6z
		 M196.1,65.7c2.8,0,5.4-1.4,8.4-4v-8.4c-10.2,1.2-13.6,3.6-13.6,7.5C190.9,64.3,193.3,65.7,196.1,65.7z"/>
	<path fill="#4E5C73" d="M215.6,30h2.3v34.1c0,1.1,0.5,1.6,1.1,1.6c0.2,0,0.4,0,0.9-0.1l0.4,1.9c-0.5,0.2-0.9,0.3-1.6,0.3
		c-2,0-3-1.2-3-3.9V30z"/>
	<path fill="#4E5C73" d="M227.9,30h2.3v34.1c0,1.1,0.5,1.6,1.1,1.6c0.2,0,0.4,0,0.9-0.1l0.4,1.9c-0.5,0.2-0.9,0.3-1.6,0.3
		c-2,0-3-1.2-3-3.9V30z"/>
	<path fill="#4E5C73" d="M239.2,34.3c0-1.3,0.9-2.1,2.1-2.1c1.1,0,2.1,0.8,2.1,2.1c0,1.2-0.9,2-2.1,2
		C240.1,36.3,239.2,35.5,239.2,34.3z M240.1,42.3h2.3v24.7h-2.3V42.3z"/>
	<path fill="#4E5C73" d="M251.9,42.3h2l0.2,3.8h0.2c2.5-2.5,5.1-4.4,8.5-4.4c5.1,0,7.5,3.1,7.5,9.5v15.9h-2.3V51.5
		c0-5.3-1.6-7.7-5.7-7.7c-2.9,0-5.1,1.5-8.1,4.6v18.7h-2.3V42.3z"/>
	<path fill="#4E5C73" d="M279.3,30h2.3v27.3h0.1l12.2-15h2.6l-8,9.8l9.4,14.9h-2.5l-8.2-13.2l-5.6,6.5v6.8h-2.3V30z"/>
</g>
</svg>
